# xmcd
#
# Track frame offsets: 
#        150
#        14977
#        30235
#        50222
#        67460
#        93015
#        114292
#        132927
#        149852
#        167192
#        185717
#        202655
#        221300
#        246637
#        262810
#        279027
#        299590
#
# Disc length: 4222 seconds
#
# Revision: 1
# Processed by: cddbd v1.5.2PL0 Copyright (c) Steve Scherf et al.
# Submitted via: ExactAudioCopyFreeDBPlugin 1.0
#
DISCID=0d107c11
DTITLE=Various Artist - Hits Collection '98
DYEAR=1998
DGENRE=Eurodance
TTITLE0=2 Unlimited - Wanna Get Up
TTITLE1=Maarja - First In Line
TTITLE2=El Matador - La Luna Y El Toro
TTITLE3=Michelle T - Horny '98
TTITLE4=Flickman - All Night Long
TTITLE5=2 Eivissa - Move Your Body
TTITLE6=Ultra Nate - Found A Cure
TTITLE7=B.P.M. System - One, Two, Three
TTITLE8=Bus Stop Feat. Carl Douglas - Kung Fu Fighting
TTITLE9=Dj. Bobo - Around The World
TTITLE10=Dj. Disco - Dirty Disco Dubs - Stamp Your Feet
TTITLE11=Corona - Walking On Music
TTITLE12=666 - Amokk
TTITLE13=Whigfield - Givin' All My Love
TTITLE14=Brooklyn Bounce - Get Ready To Bounce
TTITLE15=Encore - Le Disc-jockey
TTITLE16=Happy Nation - Girls Just Wanna Have Fun
EXTD=
EXTT0=
EXTT1=
EXTT2=
EXTT3=
EXTT4=
EXTT5=
EXTT6=
EXTT7=
EXTT8=
EXTT9=
EXTT10=
EXTT11=
EXTT12=
EXTT13=
EXTT14=
EXTT15=
EXTT16=
PLAYORDER=
